<svg width="60" height="60" viewBox="0 0 60 60" fill="none" xmlns="http://www.w3.org/2000/svg">
<path d="M0 20C0 8.9543 8.95431 0 20 0H40C51.0457 0 60 8.9543 60 20V40C60 51.0457 51.0457 60 40 60H20C8.9543 60 0 51.0457 0 40V20Z" fill="#E3F491"/>
<path d="M33.6 37.8C33.6 35.0386 35.8385 32.8 38.6 32.8H45.4C48.1614 32.8 50.4 35.0386 50.4 37.8V45.4C50.4 48.1614 48.1614 50.4 45.4 50.4H38.6C35.8385 50.4 33.6 48.1614 33.6 45.4V37.8Z" fill="#214C24"/>
<path d="M9.59996 37.8C9.59996 35.0386 11.8385 32.8 14.6 32.8H21.4C24.1614 32.8 26.4 35.0386 26.4 37.8V45.4C26.4 48.1614 24.1614 50.4 21.4 50.4H14.6C11.8385 50.4 9.59996 48.1614 9.59996 45.4V37.8Z" fill="#689700"/>
<path d="M9.59996 14.6C9.59996 11.8386 11.8385 9.60001 14.6 9.60001H21.4C24.1614 9.60001 26.4 11.8386 26.4 14.6V22.2C26.4 24.9614 24.1614 27.2 21.4 27.2H14.6C11.8385 27.2 9.59996 24.9614 9.59996 22.2V14.6Z" fill="#214C24"/>
<path d="M33.6 14.6C33.6 11.8386 35.8385 9.60001 38.6 9.60001H45.4C48.1614 9.60001 50.4 11.8386 50.4 14.6V22.2C50.4 24.9614 48.1614 27.2 45.4 27.2H38.6C35.8385 27.2 33.6 24.9614 33.6 22.2V14.6Z" fill="#689700"/>
</svg>
