<svg width="1000" height="1908" viewBox="0 0 1000 1908" fill="none" xmlns="http://www.w3.org/2000/svg">
<g clip-path="url(#clip0_11_300)">
<path d="M889.432 245.605L890.998 245.496C893.699 245.621 896.393 247.455 897.785 249.727C899.508 252.539 899.107 254.746 898.596 257.812C896.102 260.654 895.438 260.977 892.051 262.207C889.803 262.32 888.523 261.84 886.363 261.23C885.018 259.945 883.684 258.838 882.922 257.104C881.965 254.928 881.701 253.164 882.783 250.977C884.223 248.068 886.539 246.707 889.432 245.605Z" fill="#CFE61F"/>
<path d="M618.217 384.277C619.723 383.838 620.842 383.652 622.439 383.918C624.785 384.309 627.303 385.709 628.41 387.92C629.336 389.768 629.4 393.041 628.852 395.019C627.971 398.199 626.244 399.189 623.535 400.676L621.934 401.031C618.701 401.34 616.787 399.75 614.426 397.949C613.313 395.598 612.715 393.855 613.068 391.213C613.52 387.857 615.691 386.109 618.217 384.277Z" fill="#CFE61F"/>
<path d="M408.938 947.754C411.371 947.139 413.957 947.363 416.34 948.133C419.861 949.268 423.145 952.297 424.705 955.643C426.219 958.893 426.232 963.156 424.902 966.461C423.174 970.764 420.68 972.574 416.504 974.281C414.172 974.529 411.611 974.867 409.314 974.256C405.66 973.283 401.961 970.02 400.395 966.59C399.047 963.641 399.074 959.195 400.254 956.197C401.896 952.023 404.988 949.543 408.938 947.754Z" fill="#689700"/>
<path d="M470.014 612.793C473.107 612.359 475.912 612.141 478.803 613.58C481.91 615.127 484.891 618.838 485.877 622.166C486.908 625.648 486.871 630.6 485.068 633.838C483.021 637.512 480.25 638.422 476.381 639.535C473.605 639.324 469.787 639.373 467.24 638.164C464.686 636.953 461.906 633.799 460.898 631.166C459.533 627.594 459.676 623.219 461.363 619.791C463.229 615.998 466.223 614.266 470.014 612.793Z" fill="#689700"/>
<path d="M854.1 364.412C856.635 364.811 859.625 365.162 861.816 366.574C865.578 368.996 868.201 372.656 869.232 376.994C870.344 381.67 869.125 387.246 866.535 391.25C863.76 395.541 860.131 397 855.336 398.109C852.316 397.713 849.219 397.383 846.545 395.814C842.443 393.408 838.713 389.094 837.914 384.277C837.291 380.512 837.881 375.758 840.082 372.559C843.69 367.314 848.182 365.797 854.1 364.412Z" fill="#689700"/>
<path d="M840.258 1305.73C843.266 1305.66 846.564 1306.04 849.432 1306.98C853.869 1308.44 857.459 1311.96 859.338 1316.22C861.365 1320.81 861.609 1326.76 859.75 1331.44C857.41 1337.34 852.77 1340.14 847.131 1342.35C843.881 1342.52 840.344 1342.47 837.211 1341.51C833.063 1340.24 829.342 1336.7 827.625 1332.75C825.437 1327.71 824.895 1321.02 827.209 1315.92C830.01 1309.74 834.156 1307.86 840.258 1305.73Z" fill="#FFA538"/>
<path d="M833.666 1062.59C836.723 1062.94 839.885 1063.32 842.773 1064.45C847.947 1066.46 851.889 1070.76 853.898 1075.86C855.648 1080.3 855.49 1086.01 853.465 1090.33C850.535 1096.59 845.977 1099.52 839.695 1101.82L838.023 1101.79C834.666 1101.77 831.389 1101.97 828.221 1100.64C823.207 1098.54 818.943 1093.68 817.223 1088.56C815.471 1083.35 815.859 1077.55 818.609 1072.75C822.076 1066.71 827.18 1064.29 833.666 1062.59Z" fill="#CFE61F"/>
<path d="M337.93 1075.33L338.676 1075.37C342.322 1075.38 345.779 1075.1 349.303 1076.27C354.764 1078.08 358.723 1082.15 361.023 1087.34C363.072 1091.96 362.988 1098.38 360.963 1103.03C358.26 1109.22 353.471 1111.65 347.549 1114.11C343.178 1114.34 339.436 1114.58 335.316 1112.93C330.178 1110.87 326.668 1106.99 324.678 1101.85C322.65 1096.62 323.387 1090.7 325.625 1085.66C328.076 1080.14 332.603 1077.59 337.93 1075.33Z" fill="#CFE61F"/>
<path d="M733.945 685.682C740.551 685.422 746.016 685.002 752.166 687.936C759.244 691.311 765.105 697.914 767.572 705.367C770.32 713.668 769.605 723.174 765.26 730.793C760.871 738.486 754.748 741.875 746.553 744.293C740.289 744.902 733.201 744.797 727.342 742.271C719.934 739.08 714.648 733.793 711.803 726.221C708.83 718.316 708.904 709.848 712.619 702.238C717.186 692.889 724.471 688.836 733.945 685.682Z" fill="#CFE61F"/>
<path d="M361.072 833.139C367.617 832.852 373.494 832.941 379.57 835.842C387.338 839.549 393.225 846.867 395.66 855.113C397.805 862.375 396.324 871.48 392.549 877.93C387.523 886.514 380.395 889.891 371.252 892.422C366.779 892.68 362.098 892.975 357.738 891.764C349.777 889.553 343.012 884.42 339.02 877.156C335.836 871.363 334.604 863.49 336.469 857.08L336.816 855.957C337.572 853.469 338.34 851.025 339.594 848.73C344.387 839.959 351.875 835.9 361.072 833.139Z" fill="#FEFEB2"/>
<path d="M537.121 642.223C541.977 648.746 545.67 656.783 549.35 664.01C554.746 674.613 560.672 685.895 564.172 697.299C566.941 706.33 567.383 715.27 562.689 723.772C557.418 733.324 549.275 738.875 538.961 741.832C534.883 741.498 531.258 741.193 527.646 739.059C519.504 734.248 512.115 725.613 509.826 716.309C506.525 702.891 514.275 687.223 519.762 675.273C525.025 663.807 530.26 652.836 537.121 642.223Z" fill="#A7D019"/>
<path d="M742.588 341.309L743.715 341.211C746.025 341.475 747.729 342.654 748.771 344.775C750.389 348.062 749.34 356.846 749.305 360.65C749.244 367.713 748.064 417.088 749.627 418.785C754.129 419.99 757.893 421.059 761.719 423.85C768.262 428.625 772.414 435.793 773.43 443.848C774.617 453.27 772.496 462.996 766.133 470.215C759.549 477.684 750.973 480.24 741.426 480.891C736.521 480.666 732.453 479.77 727.992 477.68C720.895 474.355 715.035 467.072 712.57 459.707C709.67 451.041 710.467 441.309 714.631 433.18C718.15 426.309 723.822 421.738 731.129 419.451L736.711 417.594L737.324 346.191C738.545 343.441 740.094 342.701 742.588 341.309Z" fill="#1F8A45"/>
<path d="M358.978 1291.05L345.406 1219.39C390.398 1233.62 437.428 1259.11 473.465 1289.75C460.186 1291.99 445.387 1290.75 431.914 1290.74L358.978 1291.05Z" fill="#A7D019"/>
<path d="M388.307 1038.76L452.891 1065.98C462.621 1070.25 473.363 1074.36 482.395 1079.9L482.531 1223.53L388.307 1038.76Z" fill="#214C24"/>
<path d="M743.969 1656.31C754.574 1685.94 765.699 1718.52 767.865 1750.08C710.379 1724.55 655.881 1694.89 606.029 1656.32L743.969 1656.31Z" fill="#689700"/>
<path d="M407.447 711.838C416.949 716.143 425.809 722.482 434.447 728.318C452.34 740.406 469.844 753.754 486.305 767.738L486.094 940.879C450.977 868.666 423.256 790.557 407.447 711.838Z" fill="#5EB262"/>
<path d="M473.465 1289.75L544.053 1352.47L379.242 1353.48L358.979 1291.05L431.914 1290.74C445.387 1290.75 460.186 1291.99 473.465 1289.75Z" fill="#689700"/>
<path d="M535.475 1594.87C538.316 1593.22 702.785 1594.26 717.439 1594.47L743.969 1656.31L606.029 1656.32C598.891 1652.56 591.729 1645.8 585.428 1640.61C567.867 1626.15 551.07 1611.47 535.475 1594.87Z" fill="#A7D019"/>
<path d="M379.242 1353.48L544.053 1352.47L597.438 1410.91C593.326 1412.88 588.006 1412.09 583.484 1412.1L553.303 1412.19L454.852 1412.34C438.313 1412.36 421.273 1411.53 404.789 1412.53L379.242 1353.48Z" fill="#A7D019"/>
<path d="M707.33 1113L730.84 1143.03L756.863 1172.07C759.063 1174.47 764.342 1178.92 765.643 1181.63C766.66 1183.75 765.506 1360.45 765.496 1381.2C761.086 1374.38 754.572 1368.07 749.381 1361.78L715.953 1320.35C713.682 1317.47 708.441 1312.19 707.219 1308.87C706.221 1306.15 706.975 1300.45 706.98 1297.39L707.061 1265.12L707.33 1113Z" fill="#689700"/>
<path d="M492.176 1084.9L556.686 1123.44L557.647 1343.36C549.941 1329.31 539.791 1316.27 530.955 1302.89L503.533 1259.16C500.93 1255.12 494.213 1247.25 493.201 1242.98C492.578 1240.36 493.209 1235.58 493.209 1232.72L493.146 1204.71L492.176 1084.9Z" fill="#214C24"/>
<path d="M518.592 1166.22C523.324 1165.55 528.449 1165.19 533.092 1166.62C539.93 1168.73 544.822 1173.21 547.955 1179.6C550.727 1185.25 551.152 1194.45 548.945 1200.33C546.004 1208.16 539.113 1212.14 531.834 1215.21C527.84 1216.04 521.982 1216.43 518.039 1215.18C510.939 1212.93 505.979 1207.33 502.969 1200.68C500.002 1194.14 500.061 1186.32 502.77 1179.7C505.824 1172.24 511.506 1169.08 518.592 1166.22Z" fill="#A7D019"/>
<path d="M597.438 1410.91L644.922 1472.18C621.805 1472.04 445.117 1470.33 438.459 1473.89C435.205 1472.07 407.67 1418.54 404.789 1412.53C421.273 1411.53 438.313 1412.36 454.852 1412.34L553.303 1412.19L583.484 1412.1C588.006 1412.09 593.326 1412.88 597.438 1410.91Z" fill="#689700"/>
<path d="M683.496 1530.93L717.439 1594.47C702.785 1594.26 538.316 1593.22 535.475 1594.87L479.865 1532.08L683.496 1530.93Z" fill="#689700"/>
<path d="M644.922 1472.18L683.496 1530.93L479.865 1532.08C464.59 1515.03 450.482 1493.38 438.459 1473.89C445.117 1470.33 621.805 1472.04 644.922 1472.18Z" fill="#A7D019"/>
<path d="M567.441 1132.5L604.758 1190.18L621.023 1213.56C622.438 1215.57 626.076 1219.55 626.779 1221.67C627.615 1224.2 626.779 1230.94 626.773 1233.87L626.49 1279.97L626.549 1421.39L625.496 1422.57L590.928 1381.84C587.068 1377.47 568.322 1358.89 567.52 1355.04C566.613 1350.7 567.447 1344.18 567.424 1339.64L567.318 1299.09L567.441 1132.5Z" fill="#214C24"/>
<path d="M635.969 1233.6C646.268 1250.86 659.652 1268.03 671.723 1284.18L691.48 1310.5C692.734 1312.16 696.75 1316.29 697.246 1318.09C697.842 1320.24 697.268 1324.64 697.279 1326.98L697.559 1350.41L699.186 1532.22C692.285 1516.41 681.473 1501.62 671.943 1487.3C661.006 1470.87 650.141 1453.39 637.391 1438.31C636.416 1437.16 636.793 1436.32 636.793 1434.9L635.969 1233.6Z" fill="#214C24"/>
<path d="M635.244 966.309L636.197 966.834C644.072 1001.68 657.295 1037.57 676.064 1068.06L691.223 1091.51C693.037 1094.13 697.014 1097.95 698.086 1100.8C699.121 1103.56 698.301 1109.96 698.293 1113.04L698.184 1149.49L698.17 1297.05L635.586 1206.69C637.018 1195.07 636.475 1183.09 636.49 1171.38L636.514 1116.67L635.244 966.309Z" fill="#689700"/>
<path d="M644.381 747.354L650.113 753.076L688.699 793.166C690.943 795.609 695.959 799.816 697.35 802.66C697.984 803.955 697.381 810.379 697.389 812.311L697.457 850.275L697.186 1076.67C670.969 1035.01 648.092 986.088 644.242 936.232C642.445 912.959 644.117 888.221 644.143 864.766L644.381 747.354Z" fill="#FEFEB2"/>
<path d="M495.223 774.234L540.178 818.109L552.885 831.719C554.008 832.939 556.56 835.074 557.178 836.406C558.09 838.369 557.1 845.99 557.078 848.652L556.734 898.092L556.242 1080.8C549.373 1070.76 543.836 1058.81 538.242 1047.99L503.988 978.516C501.184 972.631 495.844 964.723 494.447 958.496C493.309 953.414 494.281 946.84 494.383 941.604L495.037 904.887L495.223 774.234Z" fill="#214C24"/>
<path d="M707.115 1330.04C713.459 1341 723.17 1351.29 731.059 1361.25L757.354 1395.57C759.229 1398 764.719 1402.49 765.799 1404.95C766.682 1406.96 765.84 1414.71 765.85 1417.2L765.941 1469.7L766.65 1680.07C763.275 1672.16 761.129 1663.63 758.225 1655.52L737.986 1604.51L718.154 1564.62C715.025 1558.48 710.676 1551.57 708.727 1545C707.432 1540.63 708.129 1534.06 708.076 1529.47L707.768 1490.91L707.115 1330.04Z" fill="#214C24"/>
<path d="M622.773 503.248C627.727 503.01 632.586 502.736 637.521 503.418L639.16 503.662C648.951 505.053 658.088 508.293 666.289 513.891C680.863 523.838 692.061 541.682 695.025 559.082C698.133 577.311 693.307 596.582 682.316 611.445C671.268 626.389 654.918 633.986 636.965 636.809C619.75 638.498 602.045 634.711 587.873 624.496C574.594 614.926 564.402 599.189 561.908 582.918C559.029 564.115 562.705 545.826 574.086 530.469C586.43 513.809 602.627 506.186 622.773 503.248Z" fill="#A7D019"/>
<path d="M566.6 847.318C581.633 866.256 596.09 885.191 608.662 905.918C614.076 914.842 618.369 924.197 623.385 933.289C624.461 935.238 625.508 936.695 625.85 938.965C627.061 946.982 626.014 956.447 626.004 964.598L626.016 1021.23L626.311 1194.35L579.531 1121.39C575.502 1114.51 569.77 1106.85 566.949 1099.51C565.432 1095.56 566.289 1088.76 566.248 1084.38L566.16 1039.45L566.6 847.318Z" fill="#214C24"/>
<path d="M708.27 816.977L729.033 838.127C743.893 853.738 758.172 872.637 763.354 893.971C765.75 903.844 764.65 915.475 764.678 925.598L764.748 980.754L764.939 1161.57L763.516 1160.21C756.801 1153.7 750.76 1145.94 744.713 1138.77L715.539 1101.95C713.709 1099.39 709.559 1094.84 708.633 1092.12C707.834 1089.78 708.586 1084.42 708.572 1081.72L708.418 1052.14L708.27 816.977Z" fill="#A7D019"/>
<path d="M933.184 371.18C935.277 366.754 935.961 360.006 937.256 355.141L947.666 319.156C954.396 297.82 962.945 277.012 971.826 256.49C980.699 235.992 989.914 215.699 1001.35 196.473C1016.32 222.779 1029.23 250.449 1040.96 278.32C1053.66 308.475 1064.67 338.322 1071.99 370.305C1069.47 374.52 1065.18 377.691 1061.95 381.385L1041.31 407.107C1026.5 427.5 1015.82 450.061 1003.23 471.76C997.146 462.4 992.631 452.068 987.08 442.357C972.031 416.033 954.93 392.451 933.184 371.18Z" fill="#A7D019"/>
<path d="M814.219 1570.5L843.75 1586.93C899.609 1623.36 944.973 1675.47 968.834 1738.25C975.471 1755.71 979.75 1773.85 983.553 1792.1C926.523 1792.08 868.377 1780.62 813.746 1765.06L814.219 1570.5Z" fill="#689700"/>
<path d="M1071.99 370.305C1080.06 407.51 1083.06 448.818 1061.45 482.277C1050.92 498.59 1035.29 512.045 1015.99 516.248L1008.85 517.156L1008.61 651.062L1008.34 677.373C1008.23 682.309 1007.42 688.762 1008.67 693.518C1013.35 673.486 1018.71 654.451 1027.46 635.717C1043.42 601.512 1070.5 571.82 1102.48 551.9C1124.34 538.289 1146.45 530.475 1171.03 523.486C1150.83 556.49 1129.79 588.215 1105.46 618.342C1082.15 647.219 1056.56 673.281 1031 700.094L1003.89 729.551L999.447 689.594C1000.29 684.949 999.231 679.695 998.842 675.004L997.994 652.951L997.115 517.801L991.432 516.906C972.535 513.609 955.83 501.813 945.02 486.119C921.871 452.52 926.119 409.18 933.184 371.18C954.93 392.451 972.031 416.033 987.08 442.357C992.631 452.068 997.147 462.4 1003.23 471.76C1015.82 450.061 1026.5 427.5 1041.31 407.107L1061.95 381.385C1065.18 377.691 1069.47 374.52 1071.99 370.305Z" fill="#689700"/>
<path d="M816.158 756.264C822.754 759.666 828.248 766.408 833.496 771.621L859.615 797.498L974.781 912.15L992.898 930.287C995.828 933.266 999.209 937.553 1002.93 939.416L1002.09 1090.3L1003.96 1091.98C1002.24 1092.79 1001.79 1092.31 1000 1091.88L816.191 906.348C814.258 891.66 815.998 874.545 816.023 859.586L816.158 756.264Z" fill="#689700"/>
<path d="M1003.96 1091.98L1009.47 1088.93L1010.94 1269.72C1028.6 1220.5 1059.67 1180.64 1107.71 1158C1128.2 1148.35 1152.74 1140.96 1175.39 1139.28C1165.5 1185.98 1144.45 1224.38 1103.35 1250.87C1077.32 1267.64 1041.74 1279.87 1010.7 1281.39L1010.71 1790.53C1007.84 1792.47 1004.64 1791.73 1001.24 1791.64C1000.89 1791.11 1000.4 1790.64 1000.2 1790.04C998.832 1785.77 1000.13 1775.78 1000.1 1771.05L999.84 1699.87L999.906 1281.57C948.775 1273.3 901.012 1255.46 869.563 1212.12C853.68 1190.23 845.727 1166.84 840.197 1140.6C891.834 1148.47 938.621 1169.07 970.412 1211.99C983.342 1229.44 992.365 1248.93 999.828 1269.22L1000 1091.88C1001.79 1092.31 1002.24 1092.79 1003.96 1091.98Z" fill="#1F8A45"/>
<path d="M815.41 628.344L815.631 460.775L916.941 562.85C935.785 582.436 956.416 601.039 971.463 623.891C984.748 644.066 993.57 666.26 999.447 689.594L1003.89 729.551L1004.11 810.291C1012.87 798.943 1022.75 788.889 1032.39 778.318L1105.73 701.725L1163.19 642.67C1172.06 633.662 1180.75 623.121 1190.62 615.299L1190.67 749.176C1178.47 763.113 1164.86 775.762 1151.83 788.908L1090.57 851.408L1023.26 920.572C1018.73 925.125 1008.48 937.859 1002.93 939.416C999.209 937.553 995.828 933.266 992.898 930.287L974.781 912.15L859.615 797.498L833.496 771.621C828.248 766.408 822.754 759.666 816.158 756.264L815.41 628.344Z" fill="#FEFEB2"/>
<path d="M815.41 628.344C821.008 632.166 825.709 637.563 830.512 642.354L852.828 664.156L1002.76 813.701L1002.93 939.416C999.209 937.553 995.828 933.266 992.898 930.287L974.781 912.15L859.615 797.498L833.496 771.621C828.248 766.408 822.754 759.666 816.158 756.264L815.41 628.344Z" fill="#A7D019"/>
<path d="M898.377 772.949C900.973 772.105 904.252 771.91 906.955 772.272C911.103 772.826 914.828 775.256 917.17 778.701C919.301 781.832 919.816 786.564 919.055 790.219C917.982 795.369 914.81 797.777 910.602 800.508C907.043 801.305 903.783 802.012 900.162 801.143C896.443 800.25 893.715 798.18 891.838 794.85C889.617 790.906 889.08 785.943 890.428 781.631C891.783 777.287 894.551 775.086 898.377 772.949Z" fill="#FEFEB2"/>
</g>
<defs>
<clipPath id="clip0_11_300">
<rect width="2000" height="2000" fill="white"/>
</clipPath>
</defs>
</svg>
