<svg width="663" height="436" viewBox="0 0 663 436" fill="none" xmlns="http://www.w3.org/2000/svg">
<g clip-path="url(#clip0_8_215)">
<path d="M399.115 436H0V2.6748L399.115 119.031V436Z" fill="#D4E485"/>
<path d="M350.743 282.865H37.1528V419.951H350.743V282.865Z" fill="#3F3D56"/>
<path d="M282.829 257.219C306.913 257.219 326.436 238.901 326.436 216.304C326.436 193.706 306.913 175.388 282.829 175.388C258.745 175.388 239.221 193.706 239.221 216.304C239.221 238.901 258.745 257.219 282.829 257.219Z" fill="#214C24"/>
<path d="M282.829 257.219C306.913 257.219 326.436 238.901 326.436 216.304C326.436 193.706 306.913 175.388 282.829 175.388C258.745 175.388 239.221 193.706 239.221 216.304C239.221 238.901 258.745 257.219 282.829 257.219Z" fill="#689700"/>
<path d="M282.434 290.297L282.791 216.078" stroke="#3F3D56" stroke-width="2" stroke-miterlimit="10"/>
<path d="M282.791 226.574C288.969 226.574 293.977 221.875 293.977 216.078C293.977 210.282 288.969 205.583 282.791 205.583C276.613 205.583 271.605 210.282 271.605 216.078C271.605 221.875 276.613 226.574 282.791 226.574Z" fill="#3F3D56"/>
<path d="M282.571 261.821C282.571 261.821 281.128 229.566 248.351 233.175L282.571 261.821Z" fill="#3F3D56"/>
<path d="M100.152 175.073C124.236 175.073 143.759 156.754 143.759 134.157C143.759 111.56 124.236 93.2417 100.152 93.2417C76.0681 93.2417 56.5444 111.56 56.5444 134.157C56.5444 156.754 76.0681 175.073 100.152 175.073Z" fill="#214C24"/>
<path d="M100.152 175.073C124.236 175.073 143.759 156.754 143.759 134.157C143.759 111.56 124.236 93.2417 100.152 93.2417C76.0681 93.2417 56.5444 111.56 56.5444 134.157C56.5444 156.754 76.0681 175.073 100.152 175.073Z" fill="#689700"/>
<path d="M97.6826 285.207L100.192 134.112" stroke="#3F3D56" stroke-width="2" stroke-miterlimit="10"/>
<path d="M100.192 144.608C106.37 144.608 111.378 139.909 111.378 134.112C111.378 128.316 106.37 123.616 100.192 123.616C94.0143 123.616 89.0061 128.316 89.0061 134.112C89.0061 139.909 94.0143 144.608 100.192 144.608Z" fill="#3F3D56"/>
<path d="M99.4825 176.851C99.4825 176.851 98.4203 144.583 65.6025 147.852L99.4825 176.851Z" fill="#3F3D56"/>
<path d="M97.7306 282.323C97.7306 282.323 105.951 220.421 64.457 216.815" stroke="#3F3D56" stroke-width="2" stroke-miterlimit="10"/>
<path d="M64.4569 227.311C70.6348 227.311 75.6431 222.612 75.6431 216.815C75.6431 211.019 70.6348 206.32 64.4569 206.32C58.279 206.32 53.2708 211.019 53.2708 216.815C53.2708 222.612 58.279 227.311 64.4569 227.311Z" fill="#3F3D56"/>
<path d="M193.929 84.2382C218.013 84.2382 237.537 65.9197 237.537 43.3226C237.537 20.7255 218.013 2.40698 193.929 2.40698C169.845 2.40698 150.322 20.7255 150.322 43.3226C150.322 65.9197 169.845 84.2382 193.929 84.2382Z" fill="#214C24"/>
<path d="M193.929 84.2382C218.013 84.2382 237.537 65.9197 237.537 43.3226C237.537 20.7255 218.013 2.40698 193.929 2.40698C169.845 2.40698 150.322 20.7255 150.322 43.3226C150.322 65.9197 169.845 84.2382 193.929 84.2382Z" fill="#689700"/>
<path d="M193.957 291.034V43.4729" stroke="#3F3D56" stroke-width="2" stroke-miterlimit="10"/>
<path d="M193.956 53.8514C200.134 53.8514 205.143 49.1524 205.143 43.3558C205.143 37.5592 200.134 32.8601 193.956 32.8601C187.778 32.8601 182.77 37.5592 182.77 43.3558C182.77 49.1524 187.778 53.8514 193.956 53.8514Z" fill="#3F3D56"/>
<path d="M159.599 232.963C165.777 232.963 170.785 228.264 170.785 222.467C170.785 216.671 165.777 211.972 159.599 211.972C153.421 211.972 148.413 216.671 148.413 222.467C148.413 228.264 153.421 232.963 159.599 232.963Z" fill="#3F3D56"/>
<path d="M193.957 96.968C193.957 96.968 192.359 64.7195 159.599 68.468L193.957 96.968Z" fill="#3F3D56"/>
<path d="M193.957 188.389C193.957 188.389 192.359 156.14 159.599 159.889L193.957 188.389Z" fill="#3F3D56"/>
<path d="M193.957 288.149C193.957 288.149 201.148 225.466 159.599 222.467" stroke="#3F3D56" stroke-width="2" stroke-miterlimit="10"/>
<path d="M229 134.51C235.178 134.51 240.186 129.811 240.186 124.014C240.186 118.217 235.178 113.518 229 113.518C222.822 113.518 217.814 118.217 217.814 124.014C217.814 129.811 222.822 134.51 229 134.51Z" fill="#3F3D56"/>
<path d="M194.643 186.352C194.643 186.352 187.452 127.013 229 124.014" stroke="#3F3D56" stroke-width="2" stroke-miterlimit="10"/>
<path d="M287.22 100.307C284.119 100.307 281.087 99.444 278.509 97.8275C275.931 96.211 273.921 93.9133 272.734 91.2251C271.547 88.5369 271.237 85.5789 271.842 82.7251C272.447 79.8713 273.94 77.25 276.133 75.1925C278.326 73.135 281.12 71.7339 284.161 71.1662C287.203 70.5986 290.355 70.8899 293.22 72.0034C296.085 73.1169 298.534 75.0025 300.257 77.4218C301.98 79.8412 302.9 82.6855 302.9 85.5952C302.895 89.4956 301.241 93.235 298.302 95.993C295.362 98.7511 291.377 100.302 287.22 100.307ZM287.22 72.221C284.401 72.221 281.645 73.0054 279.301 74.4749C276.957 75.9445 275.13 78.0333 274.051 80.4771C272.972 82.9209 272.69 85.61 273.24 88.2044C273.79 90.7987 275.147 93.1818 277.141 95.0522C279.134 96.9226 281.674 98.1964 284.439 98.7124C287.204 99.2285 290.07 98.9637 292.675 97.9514C295.279 96.9391 297.506 95.2249 299.072 93.0255C300.638 90.8262 301.474 88.2404 301.474 85.5952C301.47 82.0494 299.967 78.65 297.294 76.1427C294.622 73.6354 290.999 72.225 287.22 72.221Z" fill="#3F3D56"/>
<path d="M40.6241 29.4233C37.523 29.4233 34.4915 28.5605 31.913 26.944C29.3346 25.3274 27.3249 23.0298 26.1381 20.3416C24.9514 17.6534 24.6409 14.6953 25.2459 11.8416C25.8509 8.98778 27.3442 6.36641 29.537 4.30895C31.7298 2.25149 34.5237 0.850339 37.5652 0.282686C40.6067 -0.284966 43.7593 0.00637622 46.6244 1.11987C49.4894 2.23336 51.9383 4.11898 53.6611 6.5383C55.384 8.95762 56.3036 11.802 56.3036 14.7117C56.2989 18.6121 54.6455 22.3515 51.706 25.1095C48.7665 27.8675 44.7811 29.4189 40.6241 29.4233ZM40.6241 1.33743C37.8049 1.33743 35.049 2.12181 32.705 3.59139C30.3609 5.06097 28.5339 7.14974 27.455 9.59356C26.3762 12.0374 26.0939 14.7265 26.6439 17.3209C27.1939 19.9152 28.5515 22.2983 30.5449 24.1687C32.5384 26.0391 35.0782 27.3129 37.8433 27.8289C40.6083 28.345 43.4743 28.0801 46.0789 27.0678C48.6835 26.0556 50.9097 24.3414 52.4759 22.142C54.0422 19.9426 54.8782 17.3568 54.8782 14.7117C54.8739 11.1658 53.3707 7.76641 50.6985 5.25913C48.0263 2.75186 44.4032 1.34149 40.6241 1.33743Z" fill="#3F3D56"/>
<path d="M399.115 247.423C396.014 247.423 392.982 246.56 390.404 244.944C387.825 243.327 385.816 241.03 384.629 238.342C383.442 235.653 383.132 232.695 383.737 229.842C384.342 226.988 385.835 224.366 388.028 222.309C390.221 220.251 393.014 218.85 396.056 218.283C399.097 217.715 402.25 218.006 405.115 219.12C407.98 220.233 410.429 222.119 412.152 224.538C413.875 226.958 414.794 229.802 414.794 232.712C414.79 236.612 413.136 240.351 410.197 243.11C407.257 245.868 403.272 247.419 399.115 247.423ZM399.115 219.337C396.296 219.337 393.54 220.122 391.196 221.591C388.852 223.061 387.025 225.15 385.946 227.594C384.867 230.037 384.585 232.726 385.135 235.321C385.685 237.915 387.042 240.298 389.036 242.169C391.029 244.039 393.569 245.313 396.334 245.829C399.099 246.345 401.965 246.08 404.57 245.068C407.174 244.056 409.4 242.341 410.967 240.142C412.533 237.943 413.369 235.357 413.369 232.712C413.365 229.166 411.861 225.766 409.189 223.259C406.517 220.752 402.894 219.341 399.115 219.337Z" fill="#3F3D56"/>
<path d="M332.833 132.405C337.95 132.405 342.098 128.513 342.098 123.712C342.098 118.91 337.95 115.018 332.833 115.018C327.716 115.018 323.568 118.91 323.568 123.712C323.568 128.513 327.716 132.405 332.833 132.405Z" fill="#3F3D56"/>
<path d="M405.529 290.89C410.646 290.89 414.794 286.998 414.794 282.196C414.794 277.395 410.646 273.503 405.529 273.503C400.412 273.503 396.264 277.395 396.264 282.196C396.264 286.998 400.412 290.89 405.529 290.89Z" fill="#3F3D56"/>
<path d="M399.115 436V282.865H332.833C332.833 354.513 270.93 412.595 194.568 412.595C118.207 412.595 56.3037 354.513 56.3037 282.865H0V436H399.115Z" fill="#3F3D56"/>
<path d="M194.568 412.595C270.93 412.595 332.833 354.513 332.833 282.865H56.3037C56.3037 354.513 118.207 412.595 194.568 412.595Z" fill="#214C24"/>
<path d="M194.568 412.595C270.93 412.595 332.833 354.513 332.833 282.865H56.3037C56.3037 354.513 118.207 412.595 194.568 412.595Z" fill="#689700"/>
<path d="M587.114 337.403C655.254 305.063 682.552 227.018 648.084 163.083L401.327 280.197C435.794 344.131 518.974 369.743 587.114 337.403Z" fill="#3F3D56"/>
<path d="M592.112 95.9622C592.572 95.6696 593.015 95.3571 593.447 95.0305C592.548 97.5565 591.099 99.8794 589.191 101.852C588.745 102.313 588.269 102.744 587.779 103.162C587.77 103.056 587.759 102.95 587.753 102.845C587.696 101.821 587.775 100.745 587.79 99.6913C589.49 98.7414 590.961 97.4717 592.112 95.9622Z" fill="url(#paint0_linear_8_215)"/>
<path d="M598.799 58.6532C599.836 57.0129 600.434 55.1612 600.542 53.2566C600.65 51.3521 600.264 49.4514 599.418 47.7173C598.572 45.9832 597.29 44.4674 595.683 43.2997C594.076 42.1319 592.191 41.347 590.19 41.0122C588.189 40.6773 586.131 40.8025 584.192 41.377C582.254 41.9515 580.493 42.9582 579.06 44.3108C577.627 45.6635 576.565 47.3219 575.964 49.144C575.364 50.9661 575.243 52.8976 575.612 54.7732C572.015 56.3802 569.006 58.9492 566.961 62.1571C564.917 65.365 563.93 69.0684 564.123 72.8016C562.405 75.2762 561.326 78.093 560.973 81.0277C560.619 83.9624 561.001 86.934 562.087 89.7059C563.174 92.4778 564.935 94.9734 567.23 96.9942C569.526 99.015 572.292 100.505 575.31 101.346C578.327 102.186 581.512 102.355 584.611 101.837C587.71 101.319 590.637 100.13 593.16 98.3634C595.683 96.5971 597.731 94.3026 599.142 91.6626C600.553 89.0225 601.288 86.1099 601.288 83.1565C601.288 82.854 601.278 82.5536 601.263 82.2546C603.771 78.6431 604.894 74.338 604.446 70.0481C603.998 65.7582 602.006 61.7393 598.799 58.6532Z" fill="#2F2E41"/>
<g opacity="0.1">
<path d="M575.445 51.7774C575.501 51.7515 575.555 51.7218 575.612 51.6964C575.571 51.4921 575.544 51.2843 575.515 51.0769C575.509 51.1203 575.5 51.1628 575.495 51.2063C575.47 51.3976 575.459 51.5872 575.445 51.7774Z" fill="black"/>
<path d="M604.397 71.0936C604.029 73.9785 602.956 76.7449 601.263 79.1777C601.278 79.4767 601.287 79.7771 601.287 80.0796C601.288 84.9792 599.269 89.689 595.652 93.223C592.035 96.7569 587.101 98.8408 581.883 99.0385C576.666 99.2361 571.569 97.5321 567.66 94.2832C563.751 91.0343 561.334 86.4926 560.914 81.6089C560.87 82.1197 560.843 82.635 560.843 83.1565C560.843 88.1888 562.973 93.015 566.766 96.5733C570.558 100.132 575.702 102.131 581.065 102.131C586.428 102.131 591.572 100.132 595.364 96.5733C599.157 93.015 601.287 88.1888 601.287 83.1565C601.287 82.854 601.278 82.5536 601.263 82.2546C603.715 78.729 604.844 74.5366 604.47 70.3413C604.448 70.5918 604.429 70.8419 604.397 71.0936Z" fill="black"/>
<path d="M600.458 51.064C600.24 52.6587 599.675 54.1945 598.799 55.5763C599.153 55.917 599.487 56.2741 599.812 56.6383C600.501 54.8558 600.723 52.9438 600.458 51.064Z" fill="black"/>
</g>
<path d="M517.308 262.225C517.404 263.305 517.716 264.358 518.227 265.329C518.487 265.813 518.865 266.232 519.331 266.552C519.797 266.872 520.338 267.084 520.908 267.171C521.956 267.177 522.983 266.898 523.865 266.367C525.666 265.484 527.534 264.459 528.474 262.769C529.384 261.133 529.253 259.181 529.099 257.342L527.89 242.874C524.978 242.798 522.052 242.8 519.142 242.948C516.259 243.096 515.753 243.733 516.155 246.373C516.953 251.628 516.564 256.966 517.308 262.225Z" fill="#FBBEBE"/>
<path d="M602.756 272.004L609.686 282.509C609.984 283.12 610.525 283.598 611.193 283.839C611.69 283.906 612.197 283.824 612.641 283.603C614.952 282.655 616.721 280.855 618.419 279.105C619.571 277.917 620.761 276.664 621.193 275.111C621.417 274.268 621.407 273.386 621.165 272.548C620.922 271.71 620.456 270.944 619.809 270.323C618.999 269.662 618.124 269.075 617.196 268.571C611.717 265.104 609.245 258.517 603.837 254.955C603.525 254.711 603.145 254.558 602.742 254.512C602.34 254.535 601.951 254.657 601.616 254.867C599.152 256.134 596.687 257.402 594.223 258.669C591.021 260.312 592.036 260.505 594.468 262.275C598.049 264.883 600.286 268.528 602.756 272.004Z" fill="#FBBEBE"/>
<path d="M532.35 253.857C531.335 253.557 530.198 253.287 529.241 253.724C528.793 253.98 528.414 254.33 528.133 254.746C527.852 255.161 527.677 255.632 527.62 256.121C527.427 257.086 527.45 258.089 527.165 259.034C526.683 260.627 525.389 261.872 524.142 263.044C523.638 263.608 522.983 264.036 522.244 264.284C521.245 264.524 520.182 264.085 519.166 264.251C518.574 264.394 518.035 264.686 517.607 265.095C517.179 265.504 516.878 266.016 516.737 266.574C516.473 267.693 516.433 268.848 516.619 269.981L517.405 278.045C517.544 279.028 517.555 280.023 517.437 281.008C517.147 282.781 516.049 284.336 515.44 286.036C514.831 287.736 514.865 289.906 516.39 290.988C516.922 291.321 517.535 291.523 518.173 291.576C518.81 291.629 519.451 291.53 520.038 291.29C521.205 290.795 522.238 290.059 523.059 289.137C527.727 284.361 529.811 277.892 533.442 272.38C534.368 271.105 535.197 269.77 535.922 268.385C536.421 267.314 536.737 266.178 537.14 265.072C537.697 263.595 538.365 262.157 539.14 260.769C539.571 259.975 541.224 258.063 540.877 257.176C540.285 255.663 533.922 254.322 532.35 253.857Z" fill="#2F2E41"/>
<path d="M616.514 276.1C615.464 277.948 613.712 279.358 611.604 280.048C610.993 280.204 610.423 280.48 609.935 280.859C609.615 281.226 609.416 281.673 609.364 282.146C609.312 282.618 609.409 283.094 609.643 283.515C610.126 284.348 610.753 285.1 611.5 285.739C615.69 289.899 618.461 295.139 619.458 300.786C619.706 302.211 619.869 303.726 620.777 304.891C622.553 307.167 626.332 307.018 629.001 305.72C629.816 305.37 630.524 304.832 631.058 304.156C631.502 303.423 631.785 302.613 631.889 301.776C632.371 299.7 632.637 297.585 632.684 295.461C632.632 291.452 631.027 287.619 630.26 283.674C629.172 278.076 629.717 272.047 626.939 266.989C626.662 266.395 626.225 265.879 625.67 265.492C624.975 265.15 624.195 264.985 623.411 265.017C620.901 264.92 618.389 264.899 615.875 264.954C615.171 264.97 614.348 265.053 613.983 265.618C613.61 266.196 613.936 266.934 614.264 267.536C615.819 270.392 618.34 272.674 616.514 276.1Z" fill="#2F2E41"/>
<path d="M556.887 175.761C556.185 176.304 555.709 177.062 555.543 177.902C555.377 178.742 555.531 179.61 555.978 180.354C556.534 181.219 557.533 182.024 557.314 183.014C557.087 184.041 555.741 184.39 554.637 184.555C544.904 186.007 535.433 188.681 525.997 191.346L516.099 194.142C513.245 194.949 510.342 195.777 507.876 197.347C505.613 198.794 503.822 200.801 502.703 203.146C501.571 205.526 501.182 208.148 500.778 210.727C499.292 220.217 497.394 229.801 492.881 238.408L516.887 245.794C519.214 246.596 521.625 247.165 524.079 247.492C526.419 247.674 528.775 247.568 531.085 247.174C530.936 242.145 530.845 236.964 530.696 231.934C530.681 230.345 530.571 228.759 530.367 227.182C530.007 224.772 529.21 222.427 528.961 220.004C530.069 219.147 531.679 219.36 533.114 219.4C536.388 219.489 539.586 218.421 542.498 217.013C545.41 215.605 548.119 213.85 551.015 212.413C555.84 210.019 561.328 208.409 565.012 204.629C563.135 211.338 558.703 217.185 557.845 224.075C556.979 231.036 559.999 237.849 562.954 244.285L572.399 264.85C573.441 267.12 574.83 269.673 577.401 270.214C579.003 270.552 580.655 269.988 582.142 269.334C590.834 265.515 597.788 258.334 607.069 256.037C606.378 251.725 602.746 248.16 600.69 244.25C598.955 240.951 598.389 237.237 597.233 233.723C596.077 230.209 594.091 226.647 590.599 224.977C588.941 224.184 586.707 223.493 586.552 221.753C586.541 221.194 586.668 220.641 586.921 220.135C588.165 217.198 590.095 214.562 592.57 212.419C592.889 212.189 593.144 211.89 593.313 211.547C593.405 211.208 593.423 210.855 593.368 210.509C593.193 207.709 594.791 205.09 596.573 202.838C598.356 200.587 600.416 198.444 601.421 195.802C603.149 191.26 601.434 186.269 599.725 181.72C599.035 179.882 598.309 177.987 596.89 176.562C594.666 174.329 591.202 173.686 587.963 173.353C577.494 172.276 565.207 169.701 556.887 175.761Z" fill="#2F2E41"/>
<g opacity="0.1">
<path d="M555.797 177.119C556.149 177.052 556.476 176.897 556.743 176.671C557.009 176.445 557.207 176.156 557.314 175.835C557.341 175.709 557.349 175.58 557.338 175.451C557.188 175.554 557.035 175.653 556.887 175.761C556.406 176.119 556.031 176.586 555.797 177.119Z" fill="black"/>
</g>
<path d="M573.432 104.577C573.557 106.82 572.835 109.221 570.997 110.661C570.407 111.123 569.722 111.473 569.155 111.959C568.651 112.445 568.265 113.028 568.026 113.668C567.786 114.308 567.698 114.989 567.767 115.664C567.836 116.339 568.062 116.992 568.427 117.577C568.792 118.162 569.289 118.665 569.883 119.052C571.792 120.145 574.219 119.85 576.422 119.492C579.36 119.106 582.241 118.401 585.005 117.39C587.785 116.366 590.152 114.547 591.77 112.191C589.371 110.936 588.064 108.3 587.919 105.727C587.773 103.15 588.526 100.226 586.787 98.2269C585.112 96.3018 581.96 96.3158 579.406 96.9767C578.125 97.3083 576.884 97.7671 575.601 98.0916C574.951 98.2561 572.803 98.2604 572.378 98.7097C571.605 99.5267 573.36 103.278 573.432 104.577Z" fill="#FBBEBE"/>
<path opacity="0.1" d="M573.432 104.577C573.557 106.82 572.835 109.221 570.997 110.661C570.407 111.123 569.722 111.473 569.155 111.959C568.651 112.445 568.265 113.028 568.026 113.668C567.786 114.308 567.698 114.989 567.767 115.664C567.836 116.339 568.062 116.992 568.427 117.577C568.792 118.162 569.289 118.665 569.883 119.052C571.792 120.145 574.219 119.85 576.422 119.492C579.36 119.106 582.241 118.401 585.005 117.39C587.785 116.366 590.152 114.547 591.77 112.191C589.371 110.936 588.064 108.3 587.919 105.727C587.773 103.15 588.526 100.226 586.787 98.2269C585.112 96.3018 581.96 96.3158 579.406 96.9767C578.125 97.3083 576.884 97.7671 575.601 98.0916C574.951 98.2561 572.803 98.2604 572.378 98.7097C571.605 99.5267 573.36 103.278 573.432 104.577Z" fill="black"/>
<path d="M580.792 104.438C588.64 104.438 595.002 98.4689 595.002 91.1052C595.002 83.7415 588.64 77.772 580.792 77.772C572.943 77.772 566.581 83.7415 566.581 91.1052C566.581 98.4689 572.943 104.438 580.792 104.438Z" fill="#FBBEBE"/>
<path d="M535.919 193.4C535.664 194.454 535.211 195.456 534.581 196.36C532.925 199.123 532.326 202.334 532.885 205.46C533.185 207.01 533.887 208.467 534.928 209.702C535.97 210.938 537.32 211.914 538.858 212.544C540.189 213.036 541.837 213.165 542.934 212.305C541.035 209.988 540.934 206.824 541.048 203.903C541.015 203.358 541.154 202.816 541.447 202.344C541.524 202.231 541.626 202.135 541.745 202.061C541.864 201.987 541.998 201.937 542.139 201.914C542.28 201.89 542.424 201.894 542.563 201.925C542.702 201.956 542.833 202.013 542.947 202.094C542.899 203.933 543.278 205.76 544.057 207.448C544.358 208.097 544.871 208.814 545.626 208.796C546.708 208.769 547 207.394 546.959 206.379C546.792 202.244 546.576 197.937 544.451 194.31C543.673 192.983 542.637 191.736 542.341 190.247C542.327 189.731 542.136 189.232 541.798 188.825C541.563 188.653 541.29 188.533 540.998 188.476C539.775 188.151 536.879 187.141 535.87 188.217C534.787 189.37 536.115 192.022 535.919 193.4Z" fill="#FBBEBE"/>
<path d="M557.024 122.558C555.394 122.386 554.107 123.786 553.214 125.076C549.888 129.889 547.494 135.215 546.142 140.809C545.453 143.665 545.021 146.63 543.576 149.225C543.229 149.764 542.948 150.338 542.741 150.937C542.618 151.852 542.574 152.775 542.611 153.697C542.461 155.363 541.412 156.843 541.059 158.482C540.849 159.459 540.892 160.47 540.705 161.451C540.378 163.169 539.372 164.697 538.728 166.335C537.595 169.218 537.605 172.383 536.771 175.355C536.669 175.845 536.443 176.304 536.112 176.695C535.547 177.278 534.643 177.42 533.904 177.794C533.322 178.128 532.823 178.575 532.44 179.105C532.057 179.635 531.8 180.236 531.685 180.867C531.464 182.129 531.439 183.414 531.609 184.683L532.263 192.57C532.936 192.305 533.376 191.59 533.937 191.152C534.964 190.351 536.473 190.531 537.788 190.754L539.703 191.08C541.662 191.413 543.793 191.838 545.049 193.287C546.048 191.822 545.477 189.662 547.012 188.687C547.511 188.37 548.129 188.263 548.656 187.987C549.151 187.686 549.562 187.277 549.853 186.796C550.144 186.314 550.307 185.773 550.328 185.22C550.358 184.113 550.196 183.01 549.847 181.953C552.307 180.978 553.833 178.641 554.795 176.304C555.855 173.475 556.621 170.557 557.084 167.591C559.306 155.87 561.337 144.065 561.539 132.162C561.679 130.171 561.445 128.173 560.847 126.258C560.147 124.378 559.132 122.781 557.024 122.558Z" fill="#214C24"/>
<path d="M592.849 109.793C590.504 112.102 587.506 113.735 584.207 114.503C580.925 115.261 577.574 115.724 574.198 115.887C573.161 116.05 572.096 115.964 571.103 115.636C570.149 115.23 569.424 114.17 569.812 113.257C570 112.975 570.127 112.66 570.186 112.332C570.169 111.52 568.895 111.453 568.068 111.693C562.598 113.28 557.352 116.424 554.827 121.246C553.401 123.97 552.93 127.033 552.478 130.038C551.289 137.942 550.103 146.018 551.697 153.859C552.547 158.04 554.182 162.115 554.284 166.371C554.341 168.755 553.912 171.131 553.932 173.516C553.857 174.351 554.095 175.185 554.606 175.873C554.999 176.302 555.593 176.572 555.867 177.076C556.326 177.919 555.713 179.076 556.317 179.834C557.061 180.767 558.615 180.097 559.64 179.439C564.797 176.153 571.025 174.682 577.225 175.285C584.672 176.035 592.073 179.76 599.296 177.898C598.924 177.39 598.603 176.85 598.338 176.285C594.736 165.18 594.98 152.767 600.37 142.319C602.212 138.75 604.655 135.348 605.361 131.439C605.645 129.61 605.668 127.753 605.427 125.919C605.048 122.37 604.147 118.791 602.091 115.79C600.035 112.789 596.633 110.145 592.849 109.793Z" fill="#214C24"/>
<path d="M558.47 196.832C557.891 198.282 557.614 199.822 557.652 201.37C557.598 202.851 557.677 204.333 557.887 205.801C558.008 207.056 558.484 208.258 559.267 209.282C559.668 209.785 560.219 210.166 560.85 210.377C561.482 210.588 562.165 210.618 562.815 210.465C563.326 210.266 563.784 209.962 564.154 209.575C564.524 209.189 564.798 208.73 564.955 208.232C565.261 207.236 565.486 206.22 565.627 205.192C566.25 202.165 567.944 199.325 567.973 196.242C567.997 195.877 567.935 195.511 567.792 195.17C567.176 193.903 564.158 192.481 562.683 192.694C560.838 192.961 559.139 195.368 558.47 196.832Z" fill="#FBBEBE"/>
<path opacity="0.1" d="M599.478 121.05C599.197 123.701 601.931 125.699 603.011 128.163C603.453 129.313 603.704 130.52 603.757 131.742C604.516 140.218 603.926 148.744 603.336 157.232C603.229 160.058 602.855 162.87 602.22 165.634C600.695 171.434 596.942 176.463 593.265 181.34C592.002 183.296 590.069 184.792 587.782 185.583L575.165 191.318C573.584 191.973 572.081 192.784 570.683 193.736C569.06 194.93 567.784 196.489 566.973 198.269C564.525 197.095 561.983 196.041 559.535 194.868C558.963 194.593 558.322 194.234 558.223 193.638C558.09 192.838 558.982 192.272 559.595 191.703C560.743 190.637 561.097 189.057 561.719 187.659C563.75 183.09 568.857 180.165 570.699 175.526C571.407 173.744 571.623 171.729 572.879 170.235C573.597 169.486 574.405 168.817 575.286 168.242C577.231 166.693 579.018 164.976 580.623 163.115C581.344 162.414 581.934 161.603 582.368 160.717C582.92 159.401 582.755 157.933 582.783 156.519C582.877 151.889 585.108 147.571 586.474 143.121C587.761 138.93 588.298 134.534 589.985 130.471C591.673 126.407 594.979 122.143 599.478 121.05Z" fill="black"/>
<path d="M601.118 121.05C600.837 123.701 603.57 125.699 604.651 128.163C605.092 129.313 605.344 130.52 605.396 131.742C606.156 140.218 605.566 148.744 604.976 157.232C604.868 160.058 604.495 162.87 603.86 165.634C602.334 171.434 598.582 176.463 594.905 181.34C593.641 183.296 591.708 184.792 589.422 185.583L576.804 191.318C575.224 191.973 573.721 192.784 572.323 193.736C570.699 194.93 569.423 196.489 568.613 198.269C566.165 197.095 563.623 196.041 561.175 194.868C560.602 194.593 559.962 194.234 559.863 193.638C559.73 192.838 560.621 192.272 561.235 191.703C562.383 190.637 562.737 189.057 563.359 187.659C565.389 183.09 570.496 180.165 572.339 175.526C573.047 173.744 573.263 171.729 574.518 170.235C575.237 169.486 576.044 168.817 576.926 168.242C578.871 166.693 580.658 164.976 582.263 163.115C582.984 162.414 583.574 161.603 584.008 160.717C584.559 159.401 584.394 157.933 584.423 156.519C584.517 151.889 586.748 147.571 588.114 143.121C589.401 138.93 589.937 134.534 591.625 130.471C593.312 126.407 596.618 122.143 601.118 121.05Z" fill="#214C24"/>
<path d="M587.839 70.4931C583.46 69.9909 579.027 70.852 575.221 72.944C575.782 72.9637 576.346 72.9996 576.913 73.0639C581.118 73.5403 585.057 75.2437 588.175 77.9337C591.293 80.6237 593.432 84.1645 594.29 88.0563C595.148 91.9482 594.682 95.9946 592.958 99.6245C591.233 103.254 588.337 106.285 584.679 108.287C589.892 108.466 594.976 106.747 598.87 103.491C602.764 100.234 605.166 95.6913 605.574 90.812C605.982 85.9327 604.364 81.0942 601.059 77.3077C597.754 73.5212 593.018 71.0796 587.839 70.4931Z" fill="#2F2E41"/>
<path d="M594.06 81.0413C594.551 82.0847 594.818 83.2088 594.845 84.3491C594.873 85.4895 594.66 86.6238 594.22 87.6869C594.124 87.4121 594.013 87.142 593.888 86.8778C591.388 81.6593 583.688 79.4992 576.689 82.0531C572.566 83.5577 569.608 86.3629 568.383 89.4807C566.601 84.4361 570.22 78.6399 576.861 76.2166C583.86 73.6626 591.56 75.8227 594.06 81.0413Z" fill="#2F2E41"/>
<g opacity="0.1">
<path d="M594.099 87.2728C593.775 83.6102 592.327 80.1142 589.928 77.2088C587.529 74.3033 584.284 72.1132 580.585 70.9038C578.702 71.3389 576.896 72.026 575.221 72.944C575.782 72.9637 576.346 72.9996 576.913 73.0639C580.972 73.5245 584.788 75.129 587.856 77.6656C590.924 80.2022 593.101 83.5519 594.099 87.2728Z" fill="black"/>
<path d="M597.378 73.4268C597.055 69.7642 595.606 66.2683 593.207 63.3628C590.809 60.4574 587.563 58.2672 583.864 57.0579C581.981 57.4929 580.175 58.18 578.501 59.0981C579.061 59.1178 579.625 59.1537 580.192 59.218C584.252 59.6786 588.067 61.283 591.135 63.8196C594.204 66.3563 596.38 69.706 597.378 73.4268Z" fill="black"/>
<path d="M597.462 52.7461C597.267 50.5356 596.392 48.4258 594.945 46.6723C593.497 44.9188 591.538 43.597 589.306 42.8672C588.17 43.1297 587.08 43.5444 586.069 44.0985C586.407 44.1104 586.748 44.132 587.09 44.1708C589.54 44.4488 591.843 45.4171 593.694 46.948C595.546 48.4789 596.86 50.5005 597.462 52.7461Z" fill="black"/>
<path d="M605.025 84.7022C605.418 89.2523 604.051 93.7831 601.174 97.4646C598.297 101.146 594.103 103.732 589.36 104.748C587.995 106.139 586.417 107.332 584.679 108.288C587.814 108.395 590.933 107.817 593.789 106.598C596.645 105.379 599.159 103.553 601.133 101.265C603.107 98.9768 604.486 96.2891 605.162 93.4144C605.837 90.5397 605.79 87.557 605.025 84.7022Z" fill="black"/>
</g>
<path d="M542.123 206.277L539.508 132.098" stroke="#214C24" stroke-width="2" stroke-miterlimit="10"/>
<path d="M542.123 206.277L539.508 132.098" stroke="#689700" stroke-width="2" stroke-miterlimit="10"/>
<path d="M539.508 142.594C545.686 142.594 550.694 137.895 550.694 132.098C550.694 126.301 545.686 121.602 539.508 121.602C533.33 121.602 528.322 126.301 528.322 132.098C528.322 137.895 533.33 142.594 539.508 142.594Z" fill="#214C24"/>
<path d="M539.508 142.594C545.686 142.594 550.694 137.895 550.694 132.098C550.694 126.301 545.686 121.602 539.508 121.602C533.33 121.602 528.322 126.301 528.322 132.098C528.322 137.895 533.33 142.594 539.508 142.594Z" fill="#689700"/>
<path d="M541.12 177.816C541.12 177.816 538.387 145.634 505.777 150.397L541.12 177.816Z" fill="#214C24"/>
<path d="M541.12 177.816C541.12 177.816 538.387 145.634 505.777 150.397L541.12 177.816Z" fill="#689700"/>
</g>
<defs>
<linearGradient id="paint0_linear_8_215" x1="590.59" y1="103.162" x2="590.59" y2="95.0305" gradientUnits="userSpaceOnUse">
<stop stop-color="#808080" stop-opacity="0.25"/>
<stop offset="0.53514" stop-color="#808080" stop-opacity="0.12"/>
<stop offset="1" stop-color="#808080" stop-opacity="0.1"/>
</linearGradient>
<clipPath id="clip0_8_215">
<rect width="663" height="436" fill="white"/>
</clipPath>
</defs>
</svg>
